Directors:Glenn Ficarra, John Requa

Writers (WGA):John Requa (written by) &Glenn Ficarra (written by) ...

Release Date:October 2010 (USA) 

Genre:Comedy | Drama | Romance 

Tagline:The Conman who wouldn't go straight 

Plot:Steven Russell is happily married to Debbie, and a member of the local police 
force when a car accident provokes a dramatic reassessment of his life...

------------------------------------------------------------

General
Format                           : MPEG-4
Format profile                   : Base Media
Codec ID                         : isom
File size                        : 500 MiB
Duration                         : 1h 37mn
Overall bit rate                 : 716 Kbps


Video
ID                               : 1
Format                           : AVC
Format/Info                      : Advanced Video Codec
Format profile                   : High@L3.1
Format settings, CABAC           : Yes
Format settings, ReFrames        : 4 frames
Codec ID                         : avc1
Codec ID/Info                    : Advanced Video Coding
Duration                         : 1h 37mn
Bit rate mode                    : Variable
Bit rate                         : 669 Kbps
Maximum bit rate                 : 5 637 Kbps
Width                            : 1 280 pixels
Height                           : 704 pixels
Display aspect ratio             : 16:9
Frame rate mode                  : Constant
Frame rate                       : 24.000 fps
Color space                      : YUV
Chroma subsampling               : 4:2:0
Bit depth                        : 8 bits
Scan type                        : Progressive
Bits/(Pixel*Frame)               : 0.031
Stream size                      : 467 MiB (93%)
Title                            : Video
Writing library                  : x264 core 104 r1675 2484aa0


Audio
ID                               : 2
Format                           : AAC
Format/Info                      : Advanced Audio Codec
Format version                   : Version 4
Format profile                   : LC
Format settings, SBR             : Yes
Format settings, PS              : No
Codec ID                         : 40
Duration                         : 1h 37mn
Bit rate mode                    : Variable
Bit rate                         : 44.4 Kbps
Maximum bit rate                 : 57.3 Kbps
Channel(s)                       : 2 channels
Channel positions                : Front: L R
Sampling rate                    : 48.0 KHz
Stream size                      : 31.0 MiB (6%)
Title                            : English
Language                         : English


------------------------------------------------------------

Comment seed & enjoy!!